<svg width="204" height="52" viewBox="0 0 204 52" fill="none" xmlns="http://www.w3.org/2000/svg">
<g filter="url(#filter0_d_9835_147)">
<circle cx="56.6277" cy="56.6277" r="56.6277" transform="matrix(0.866025 0.5 -0.866025 0.5 101.692 -27)" fill="#3FC7EA"/>
</g>
<path d="M95.7479 32.3376C99.0006 34.2156 104.274 34.2156 107.527 32.3376C110.78 30.4597 110.78 27.4149 107.527 25.537C104.274 23.659 99.0006 23.659 95.7479 25.537C92.4953 27.4149 92.4953 30.4597 95.7479 32.3376Z" fill="#A0E9FC"/>
<path d="M136.993 49.3283C141.924 46.4819 140.399 40.6206 133.953 34.0525C145.348 29.9573 151.821 25.5108 149.984 21.6039C148.147 17.697 138.614 15.3951 125.074 15.406C125.093 7.58913 121.106 2.08508 114.647 1.20197C108.802 0.318387 102.335 2.63306 95.8615 7.43497C94.9363 8.32392 93.7028 9.39083 92.7777 10.2798C81.4014 6.55819 71.2493 5.67808 66.3192 8.52449C61.3889 11.371 62.9134 17.2323 69.3595 23.8003C67.5115 24.5124 65.9717 25.0466 64.432 25.5808C55.8076 29.1408 51.7984 32.8748 53.3288 36.249C53.6344 37.137 54.5554 38.0245 56.0918 38.9116C59.1646 40.6856 65.008 41.9245 72.084 42.4519C73.9303 42.4503 76.0838 42.6263 77.93 42.6248C77.9274 43.6907 78.2322 44.934 78.2295 46C78.8348 50.2632 81.2888 53.459 84.3615 55.2331C85.5907 55.9427 87.1278 56.4744 88.9732 56.8283C94.8175 57.7119 101.285 55.3972 107.451 50.4179C108.376 49.5289 109.61 48.462 110.535 47.573C121.911 51.2946 131.755 52.3527 136.993 49.3283ZM145.674 22.318C146.899 24.8041 141.659 28.5391 131.804 32.1C129.655 30.1476 126.891 27.8403 123.819 25.7109C124.748 23.0453 125.062 20.3803 125.376 18.0705C134.3 17.8857 141.067 18.9462 144.139 20.7203C144.754 21.0751 145.676 21.6073 145.674 22.318ZM105.635 37.9836C102.557 38.3414 99.7861 38.8766 96.7082 39.2343C94.2492 38.1703 92.0982 36.9285 89.9472 35.6866C87.7963 34.4448 85.6453 33.2029 83.8025 31.7832C84.4221 30.0062 85.0418 28.2291 85.9688 26.6295C86.5884 24.8524 87.5155 23.2528 88.7506 21.4753C91.5211 20.9401 94.2918 20.4049 97.3697 20.0471C100.448 19.6894 103.218 19.1542 106.296 18.7965C108.755 19.8604 110.906 21.1022 113.057 22.3441C115.208 23.5859 117.359 24.8278 119.202 26.2476C118.582 28.0246 118.271 29.6238 117.036 31.4013C116.416 33.1783 115.489 34.778 114.562 36.3775C111.791 36.9127 108.713 37.6258 105.635 37.9836ZM112.401 39.3994C111.166 41.177 109.931 42.5992 108.389 44.1993C106.237 43.3128 103.47 42.4267 100.704 41.1853C102.551 40.8285 104.705 40.6492 106.244 40.4703C108.707 40.113 110.554 39.7563 112.401 39.3994ZM82.2438 40.1342C82.2482 38.3576 82.5597 36.7585 83.1793 34.9815C84.4084 35.6911 85.9448 36.5781 87.174 37.2878C88.7104 38.1748 89.9395 38.8845 91.1686 39.5941C88.0908 39.9518 85.3209 40.1317 82.2438 40.1342ZM80.4241 29.1211C78.5812 27.7013 76.7384 26.2816 75.2037 24.6839C77.6671 23.9713 80.4386 23.0809 83.5174 22.3678C82.8994 23.4341 82.2814 24.5006 81.6635 25.567C81.3519 27.1661 80.7339 28.2326 80.4241 29.1211ZM90.6036 18.6314C91.8387 16.8538 93.0729 15.4316 94.6154 13.8315C96.7671 14.718 99.5343 15.6041 101.685 16.8459C100.146 17.0248 98.2992 17.3816 96.1449 17.5609C94.2977 17.9178 92.4507 18.2745 90.6036 18.6314ZM120.761 17.8966C120.449 19.4957 120.445 21.2722 119.825 23.0493C118.596 22.3396 117.06 21.4526 115.83 20.743C114.294 19.8559 113.065 19.1463 111.836 18.4366C114.914 18.0789 117.991 18.0764 120.761 17.8966ZM121.342 32.1084C121.96 31.042 122.271 29.7982 122.58 28.9097C124.423 30.3294 126.266 31.7492 127.801 33.3468C125.337 34.0594 122.566 34.9499 119.487 35.663C120.106 34.2413 120.724 33.1749 121.342 32.1084ZM99.5506 8.85318C104.483 4.94088 109.719 2.98247 113.41 3.6901C114.333 3.51174 115.255 4.04395 115.87 4.39877C118.942 6.17283 120.779 10.0797 120.767 15.4094C116.459 15.4129 112.15 15.7716 107.533 16.3083C103.845 14.5347 100.157 12.7611 96.7748 11.5202C97.7001 10.6312 98.6253 9.7422 99.5506 8.85318ZM69.3919 10.2986C72.4732 8.51957 80.7801 9.04587 90.9262 12.4132C89.0748 14.5465 87.2227 17.0351 85.3705 19.5238C80.7527 20.4158 76.7495 21.6625 73.0545 22.7314C67.2222 16.8735 66.0024 12.2555 69.3919 10.2986ZM72.3972 40.1421C64.0905 39.6158 58.5552 38.199 57.3294 36.0681C56.1038 33.9372 59.8031 31.0918 66.8875 28.066C68.4274 27.5318 69.9671 26.9976 71.507 26.4634C73.6563 28.4159 76.42 30.7232 79.492 32.8526C78.5625 35.5182 78.2484 38.1832 77.9351 40.4929C76.0898 40.1391 74.2434 40.1406 72.3972 40.1421ZM103.454 49.1776C98.5211 53.0899 93.2854 55.0483 89.5938 54.696C85.9031 53.9883 83.1409 50.9704 82.5374 45.9965C82.54 44.9306 82.2345 44.0426 82.237 42.9766C86.545 42.9732 90.8537 42.6144 95.4705 42.0778C99.1587 43.8514 102.848 45.2696 106.537 46.6879C105.304 47.3995 104.379 48.2886 103.454 49.1776ZM112.386 45.4397C114.238 43.3064 116.09 40.8177 117.942 38.329C122.56 37.4371 126.563 36.1903 130.258 35.1214C136.09 40.9793 137.31 45.5974 133.921 47.5543C130.531 49.5112 122.533 48.8069 112.386 45.4397Z" fill="#A0E9FC"/>
<path d="M95.7479 33.3376C99.0006 35.2156 104.274 35.2156 107.527 33.3376C110.78 31.4597 110.78 28.4149 107.527 26.537C104.274 24.659 99.0006 24.659 95.7479 26.537C92.4953 28.4149 92.4953 31.4597 95.7479 33.3376Z" fill="#A0E9FC"/>
<path d="M136.993 50.3283C141.924 47.4819 140.399 41.6206 133.953 35.0525C145.348 30.9573 151.821 26.5108 149.984 22.6039C148.147 18.697 138.614 16.3951 125.074 16.406C125.093 8.58913 121.106 3.08508 114.647 2.20197C108.802 1.31839 102.335 3.63306 95.8615 8.43497C94.9363 9.32392 93.7028 10.3908 92.7777 11.2798C81.4014 7.55819 71.2493 6.67808 66.3192 9.52449C61.3889 12.371 62.9134 18.2323 69.3595 24.8003C67.5115 25.5124 65.9717 26.0466 64.432 26.5808C55.8076 30.1408 51.7984 33.8748 53.3288 37.249C53.6344 38.137 54.5554 39.0245 56.0918 39.9116C59.1646 41.6856 65.008 42.9245 72.084 43.4519C73.9303 43.4503 76.0838 43.6263 77.93 43.6248C77.9274 44.6907 78.2322 45.934 78.2295 47C78.8348 51.2632 81.2888 54.459 84.3615 56.2331C85.5907 56.9427 87.1278 57.4744 88.9732 57.8283C94.8175 58.7119 101.285 56.3972 107.451 51.4179C108.376 50.5289 109.61 49.462 110.535 48.573C121.911 52.2946 131.755 53.3527 136.993 50.3283ZM145.674 23.318C146.899 25.8041 141.659 29.5391 131.804 33.1C129.655 31.1476 126.891 28.8403 123.819 26.7109C124.748 24.0453 125.062 21.3803 125.376 19.0705C134.3 18.8857 141.067 19.9462 144.139 21.7203C144.754 22.0751 145.676 22.6073 145.674 23.318ZM105.635 38.9836C102.557 39.3414 99.7861 39.8766 96.7082 40.2343C94.2492 39.1703 92.0982 37.9285 89.9472 36.6866C87.7963 35.4448 85.6453 34.2029 83.8025 32.7832C84.4221 31.0062 85.0418 29.2291 85.9688 27.6295C86.5884 25.8524 87.5155 24.2528 88.7506 22.4753C91.5211 21.9401 94.2918 21.4049 97.3697 21.0471C100.448 20.6894 103.218 20.1542 106.296 19.7965C108.755 20.8604 110.906 22.1022 113.057 23.3441C115.208 24.5859 117.359 25.8278 119.202 27.2476C118.582 29.0246 118.271 30.6238 117.036 32.4013C116.416 34.1783 115.489 35.778 114.562 37.3775C111.791 37.9127 108.713 38.6258 105.635 38.9836ZM112.401 40.3994C111.166 42.177 109.931 43.5992 108.389 45.1993C106.237 44.3128 103.47 43.4267 100.704 42.1853C102.551 41.8285 104.705 41.6492 106.244 41.4703C108.707 41.113 110.554 40.7563 112.401 40.3994ZM82.2438 41.1342C82.2482 39.3576 82.5597 37.7585 83.1793 35.9815C84.4084 36.6911 85.9448 37.5781 87.174 38.2878C88.7104 39.1748 89.9395 39.8845 91.1686 40.5941C88.0908 40.9518 85.3209 41.1317 82.2438 41.1342ZM80.4241 30.1211C78.5812 28.7013 76.7384 27.2816 75.2037 25.6839C77.6671 24.9713 80.4386 24.0809 83.5174 23.3678C82.8994 24.4341 82.2814 25.5006 81.6635 26.567C81.3519 28.1661 80.7339 29.2326 80.4241 30.1211ZM90.6036 19.6314C91.8387 17.8538 93.0729 16.4316 94.6154 14.8315C96.7671 15.718 99.5343 16.6041 101.685 17.8459C100.146 18.0248 98.2992 18.3816 96.1449 18.5609C94.2977 18.9178 92.4507 19.2745 90.6036 19.6314ZM120.761 18.8966C120.449 20.4957 120.445 22.2722 119.825 24.0493C118.596 23.3396 117.06 22.4526 115.83 21.743C114.294 20.8559 113.065 20.1463 111.836 19.4366C114.914 19.0789 117.991 19.0764 120.761 18.8966ZM121.342 33.1084C121.96 32.042 122.271 30.7982 122.58 29.9097C124.423 31.3294 126.266 32.7492 127.801 34.3468C125.337 35.0594 122.566 35.9499 119.487 36.663C120.106 35.2413 120.724 34.1749 121.342 33.1084ZM99.5506 9.85318C104.483 5.94088 109.719 3.98247 113.41 4.6901C114.333 4.51174 115.255 5.04395 115.87 5.39877C118.942 7.17283 120.779 11.0797 120.767 16.4094C116.459 16.4129 112.15 16.7716 107.533 17.3083C103.845 15.5347 100.157 13.7611 96.7748 12.5202C97.7001 11.6312 98.6253 10.7422 99.5506 9.85318ZM69.3919 11.2986C72.4732 9.51957 80.7801 10.0459 90.9262 13.4132C89.0748 15.5465 87.2227 18.0351 85.3705 20.5238C80.7527 21.4158 76.7495 22.6625 73.0545 23.7314C67.2222 17.8735 66.0024 13.2555 69.3919 11.2986ZM72.3972 41.1421C64.0905 40.6158 58.5552 39.199 57.3294 37.0681C56.1038 34.9372 59.8031 32.0918 66.8875 29.066C68.4274 28.5318 69.9671 27.9976 71.507 27.4634C73.6563 29.4159 76.42 31.7232 79.492 33.8526C78.5625 36.5182 78.2484 39.1832 77.9351 41.4929C76.0898 41.1391 74.2434 41.1406 72.3972 41.1421ZM103.454 50.1776C98.5211 54.0899 93.2854 56.0483 89.5938 55.696C85.9031 54.9883 83.1409 51.9704 82.5374 46.9965C82.54 45.9306 82.2345 45.0426 82.237 43.9766C86.545 43.9732 90.8537 43.6144 95.4705 43.0778C99.1587 44.8514 102.848 46.2696 106.537 47.6879C105.304 48.3995 104.379 49.2886 103.454 50.1776ZM112.386 46.4397C114.238 44.3064 116.09 41.8177 117.942 39.329C122.56 38.4371 126.563 37.1903 130.258 36.1214C136.09 41.9793 137.31 46.5974 133.921 48.5543C130.531 50.5112 122.533 49.8069 112.386 46.4397Z" fill="#A0E9FC"/>
<path d="M95.748 31.3376C99.0007 33.2156 104.274 33.2156 107.527 31.3376C110.78 29.4597 110.78 26.4149 107.527 24.537C104.274 22.659 99.0007 22.659 95.748 24.537C92.4953 26.4149 92.4953 29.4597 95.748 31.3376Z" fill="white"/>
<path d="M136.994 48.3283C141.924 45.4819 140.399 39.6206 133.953 33.0525C145.348 28.9573 151.821 24.5108 149.984 20.6039C148.147 16.697 138.614 14.3951 125.074 14.406C125.093 6.58913 121.106 1.08508 114.647 0.201966C108.802 -0.681613 102.335 1.63306 95.8616 6.43497C94.9363 7.32392 93.7028 8.39083 92.7777 9.27984C81.4015 5.55819 71.2493 4.67808 66.3192 7.52449C61.389 10.371 62.9135 16.2323 69.3596 22.8003C67.5115 23.5124 65.9717 24.0466 64.432 24.5808C55.8077 28.1408 51.7985 31.8748 53.3289 35.249C53.6344 36.137 54.5555 37.0245 56.0918 37.9116C59.1646 39.6856 65.0081 40.9245 72.0841 41.4519C73.9303 41.4503 76.0838 41.6263 77.93 41.6248C77.9275 42.6907 78.2322 43.934 78.2296 45C78.8348 49.2632 81.2888 52.459 84.3616 54.2331C85.5907 54.9427 87.1279 55.4744 88.9733 55.8283C94.8175 56.7119 101.285 54.3972 107.451 49.4179C108.376 48.5289 109.61 47.462 110.535 46.573C121.911 50.2946 131.755 51.3527 136.994 48.3283ZM145.674 21.318C146.899 23.8041 141.659 27.5391 131.804 31.1C129.655 29.1476 126.891 26.8403 123.819 24.7109C124.748 22.0453 125.063 19.3803 125.376 17.0705C134.3 16.8857 141.067 17.9462 144.139 19.7203C144.754 20.0751 145.676 20.6073 145.674 21.318ZM105.635 36.9836C102.557 37.3414 99.7861 37.8766 96.7083 38.2343C94.2492 37.1703 92.0982 35.9285 89.9473 34.6866C87.7963 33.4448 85.6454 32.2029 83.8026 30.7832C84.4221 29.0062 85.0418 27.2291 85.9688 25.6295C86.5885 23.8524 87.5155 22.2528 88.7506 20.4753C91.5212 19.9401 94.2918 19.4049 97.3698 19.0471C100.448 18.6894 103.218 18.1542 106.296 17.7965C108.755 18.8604 110.906 20.1022 113.057 21.3441C115.208 22.5859 117.359 23.8278 119.202 25.2476C118.582 27.0246 118.271 28.6238 117.036 30.4013C116.416 32.1783 115.489 33.778 114.562 35.3775C111.791 35.9127 108.713 36.6258 105.635 36.9836ZM112.401 38.3994C111.166 40.177 109.932 41.5992 108.389 43.1993C106.237 42.3128 103.47 41.4267 100.704 40.1853C102.551 39.8285 104.705 39.6492 106.244 39.4703C108.707 39.113 110.554 38.7563 112.401 38.3994ZM82.2439 39.1342C82.2482 37.3576 82.5598 35.7585 83.1793 33.9815C84.4085 34.6911 85.9449 35.5781 87.174 36.2878C88.7104 37.1748 89.9395 37.8845 91.1687 38.5941C88.0908 38.9518 85.321 39.1317 82.2439 39.1342ZM80.4241 28.1211C78.5813 26.7013 76.7385 25.2816 75.2037 23.6839C77.6671 22.9713 80.4387 22.0809 83.5174 21.3678C82.8995 22.4341 82.2815 23.5006 81.6636 24.567C81.3519 26.1661 80.7339 27.2326 80.4241 28.1211ZM90.6037 17.6314C91.8387 15.8538 93.073 14.4316 94.6154 12.8315C96.7672 13.718 99.5344 14.6041 101.685 15.8459C100.146 16.0248 98.2992 16.3816 96.1449 16.5609C94.2978 16.9178 92.4507 17.2745 90.6037 17.6314ZM120.761 16.8966C120.449 18.4957 120.445 20.2722 119.825 22.0493C118.596 21.3396 117.06 20.4526 115.83 19.743C114.294 18.8559 113.065 18.1463 111.836 17.4366C114.914 17.0789 117.991 17.0764 120.761 16.8966ZM121.342 31.1084C121.96 30.042 122.271 28.7982 122.58 27.9097C124.423 29.3294 126.266 30.7492 127.801 32.3468C125.337 33.0594 122.566 33.9499 119.487 34.663C120.106 33.2413 120.724 32.1749 121.342 31.1084ZM99.5506 7.85318C104.483 3.94088 109.719 1.98247 113.41 2.6901C114.333 2.51174 115.255 3.04395 115.87 3.39877C118.942 5.17283 120.779 9.07975 120.767 14.4094C116.459 14.4129 112.15 14.7716 107.533 15.3083C103.845 13.5347 100.157 11.7611 96.7748 10.5202C97.7002 9.63121 98.6253 8.7422 99.5506 7.85318ZM69.392 9.29856C72.4733 7.51957 80.7801 8.04587 90.9262 11.4132C89.0749 13.5465 87.2227 16.0351 85.3705 18.5238C80.7528 19.4158 76.7495 20.6625 73.0546 21.7314C67.2223 15.8735 66.0025 11.2555 69.392 9.29856ZM72.3973 39.1421C64.0905 38.6158 58.5552 37.199 57.3294 35.0681C56.1038 32.9372 59.8031 30.0918 66.8875 27.066C68.4275 26.5318 69.9672 25.9976 71.5071 25.4634C73.6564 27.4159 76.42 29.7232 79.492 31.8526C78.5625 34.5182 78.2484 37.1832 77.9351 39.4929C72.3973 39.1421 74.1832 39.2552 72.3973 39.1421ZM103.454 48.1776C98.5212 52.0899 93.2855 54.0483 89.5938 53.696C85.9032 52.9883 83.141 49.9704 82.5375 44.9965C82.54 43.9306 82.2346 43.0426 82.237 41.9766C86.545 41.9732 90.8537 41.6144 95.4706 41.0778C99.1587 42.8514 102.848 44.2696 106.537 45.6879C105.304 46.3995 104.379 47.2886 103.454 48.1776ZM112.386 44.4397C114.238 42.3064 116.09 39.8177 117.942 37.329C122.56 36.4371 126.563 35.1903 130.258 34.1214C136.09 39.9793 137.31 44.5974 133.921 46.5543C130.531 48.5112 122.533 47.8069 112.386 44.4397Z" fill="white"/>
<g filter="url(#filter1_f_9835_147)">
<circle cx="11.1368" cy="11.1368" r="11.1368" transform="matrix(0.866025 0.5 -0.866025 0.5 139.455 14.5708)" fill="#006984"/>
</g>
<circle cx="16" cy="16" r="16" transform="matrix(0.866025 0.5 -0.866025 0.5 139.455 6.06299)" fill="#C59A00"/>
<circle cx="16" cy="16" r="16" transform="matrix(0.866025 0.5 -0.866025 0.5 139.455 3.78906)" fill="#FFC803"/>
<path fill-rule="evenodd" clip-rule="evenodd" d="M144.751 25.1818C144.776 25.1391 144.785 25.0932 144.775 25.0464L144.509 23.7596C144.764 23.6432 145.012 23.5219 145.248 23.386C145.512 23.2333 145.753 23.0668 145.993 22.891L148.99 23.113C149.262 23.1316 149.519 23.0298 149.599 22.8725L150.769 20.3466C150.805 20.275 150.795 20.2014 150.75 20.1369L150.769 20.0966C150.805 20.025 150.795 19.9514 150.75 19.8869L150.769 19.8466C150.849 19.6893 150.705 19.5227 150.456 19.4626L147.66 18.7733C147.584 18.4669 147.479 18.168 147.309 17.871L148.918 16.6409C149.033 16.5478 149.053 16.4282 148.981 16.3254C149.037 16.2455 149.037 16.1554 148.981 16.0754C149.066 15.9554 149.022 15.8125 148.854 15.7153L145.649 13.8648C145.448 13.7492 145.136 13.7353 144.911 13.8278L142.491 14.8826C141.786 14.7068 141.081 14.6143 140.352 14.5541L139.158 12.9396C139.054 12.7962 138.765 12.7129 138.493 12.7592L134.118 13.4346C133.838 13.4762 133.669 13.6289 133.701 13.7862L133.726 13.896C133.701 13.9402 133.692 13.988 133.701 14.0362L133.726 14.146C133.701 14.1902 133.692 14.238 133.701 14.2862L133.985 15.5627C133.718 15.6862 133.464 15.8109 133.229 15.9466C132.964 16.0993 132.732 16.2612 132.507 16.4278L129.487 16.2196C129.214 16.2011 128.95 16.2982 128.878 16.4601L127.708 18.9861C127.672 19.057 127.683 19.129 127.728 19.1925L127.708 19.2361C127.672 19.307 127.683 19.379 127.728 19.4425L127.708 19.4861C127.628 19.6434 127.78 19.8053 128.02 19.8701L130.825 20.5547C130.895 20.8644 130.999 21.1643 131.167 21.4615L129.559 22.6917C129.443 22.7849 129.424 22.9044 129.496 23.0072C129.439 23.0871 129.44 23.1772 129.496 23.2572C129.411 23.3772 129.454 23.5201 129.623 23.6173L132.828 25.4678C133.028 25.5835 133.341 25.5973 133.565 25.5048L135.985 24.45C136.698 24.6212 137.395 24.7184 138.132 24.7739L139.318 26.393C139.431 26.5318 139.711 26.6197 139.983 26.5735L144.358 25.898C144.631 25.8518 144.807 25.7037 144.775 25.5464L144.751 25.4318C144.776 25.3891 144.785 25.3432 144.775 25.2964L144.751 25.1818ZM135.296 19.6663C135.394 20.1817 135.793 20.6654 136.434 21.0355C137.178 21.4649 138.186 21.7062 139.238 21.7062C140.29 21.7062 141.299 21.4649 142.043 21.0355C142.684 20.6654 143.083 20.1817 143.181 19.6663C143.083 19.151 142.684 18.6672 142.043 18.2971C141.299 17.8677 140.29 17.6264 139.238 17.6264C138.186 17.6264 137.178 17.8677 136.434 18.2971C135.793 18.6672 135.394 19.151 135.296 19.6663Z" fill="#C59A00"/>
<path d="M136.434 20.5355C135.69 20.1061 135.272 19.5236 135.272 18.9163C135.272 18.309 135.69 17.7266 136.434 17.2971C137.178 16.8677 138.186 16.6265 139.238 16.6265C140.29 16.6265 141.299 16.8677 142.043 17.2971C142.787 17.7266 143.205 18.309 143.205 18.9163C143.205 19.5236 142.787 20.1061 142.043 20.5355C141.299 20.9649 140.29 21.2062 139.238 21.2062C138.186 21.2062 137.178 20.9649 136.434 20.5355ZM144.415 22.8024C144.703 22.6728 144.984 22.5387 145.248 22.386C145.512 22.2333 145.753 22.0668 145.993 21.891L148.99 22.1131C149.262 22.1316 149.519 22.0298 149.599 21.8725L150.769 19.3466C150.849 19.1893 150.705 19.0227 150.456 18.9626L147.66 18.2733C147.556 17.8523 147.395 17.4452 147.091 17.0381L148.918 15.6409C149.078 15.5114 149.054 15.331 148.854 15.2153L145.649 13.3648C145.448 13.2492 145.136 13.2353 144.911 13.3278L142.492 14.3826C141.786 14.2068 141.081 14.1143 140.352 14.0541L139.158 12.4396C139.054 12.2962 138.766 12.2129 138.493 12.2592L134.118 12.9346C133.838 12.9762 133.669 13.1289 133.701 13.2862L134.086 15.0164C133.782 15.1552 133.493 15.294 133.229 15.4466C132.964 15.5993 132.732 15.7612 132.508 15.9278L129.487 15.7196C129.214 15.7011 128.95 15.7982 128.878 15.9602L127.708 18.4861C127.628 18.6434 127.78 18.8053 128.02 18.8701L130.825 19.5547C130.921 19.9804 131.081 20.3875 131.386 20.7946L129.559 22.1917C129.399 22.3212 129.423 22.5017 129.623 22.6173L132.828 24.4678C133.028 24.5835 133.341 24.5973 133.565 24.5048L135.985 23.45C136.698 23.6212 137.395 23.7184 138.133 23.7739L139.318 25.3931C139.431 25.5318 139.711 25.6197 139.984 25.5735L144.359 24.8981C144.631 24.8518 144.807 24.7037 144.775 24.5465L144.415 22.8024Z" fill="white"/>
<path d="M136.434 20.5355C135.69 20.1061 135.272 19.5237 135.272 18.9163C135.272 18.309 135.69 17.7266 136.434 17.2972C137.178 16.8677 138.186 16.6265 139.238 16.6265C140.29 16.6265 141.299 16.8677 142.043 17.2972C142.787 17.7266 143.205 18.309 143.205 18.9163C143.205 19.5237 142.787 20.1061 142.043 20.5355C141.299 20.965 140.29 21.2062 139.238 21.2062C138.186 21.2062 137.178 20.965 136.434 20.5355Z" fill="#FFC703"/>
<g filter="url(#filter2_i_9835_147)">
<path d="M136.434 20.5355C135.69 20.1061 135.272 19.5237 135.272 18.9163C135.272 18.309 135.69 17.7266 136.434 17.2972C137.178 16.8677 138.186 16.6265 139.238 16.6265C140.29 16.6265 141.299 16.8677 142.043 17.2972C142.787 17.7266 143.205 18.309 143.205 18.9163C143.205 19.5237 142.787 20.1061 142.043 20.5355C141.299 20.965 140.29 21.2062 139.238 21.2062C138.186 21.2062 137.178 20.965 136.434 20.5355Z" fill="#FFC703"/>
</g>
<defs>
<filter id="filter0_d_9835_147" x="0.337925" y="-42.4141" width="202.709" height="144.084" filterUnits="userSpaceOnUse" color-interpolation-filters="sRGB">
<feFlood flood-opacity="0" result="BackgroundImageFix"/>
<feColorMatrix in="SourceAlpha" type="matrix" values="0 0 0 0 0 0 0 0 0 0 0 0 0 0 0 0 0 0 127 0" result="hardAlpha"/>
<feOffset/>
<feGaussianBlur stdDeviation="16"/>
<feComposite in2="hardAlpha" operator="out"/>
<feColorMatrix type="matrix" values="0 0 0 0 0 0 0 0 0 0.713726 0 0 0 0 0.898039 0 0 0 1 0"/>
<feBlend mode="normal" in2="BackgroundImageFix" result="effect1_dropShadow_9835_147"/>
<feBlend mode="normal" in="SourceGraphic" in2="effect1_dropShadow_9835_147" result="shape"/>
</filter>
<filter id="filter1_f_9835_147" x="115.816" y="7.8327" width="47.2794" height="35.7498" filterUnits="userSpaceOnUse" color-interpolation-filters="sRGB">
<feFlood flood-opacity="0" result="BackgroundImageFix"/>
<feBlend mode="normal" in="SourceGraphic" in2="BackgroundImageFix" result="shape"/>
<feGaussianBlur stdDeviation="5" result="effect1_foregroundBlur_9835_147"/>
</filter>
<filter id="filter2_i_9835_147" x="135.272" y="16.6265" width="7.93235" height="4.57977" filterUnits="userSpaceOnUse" color-interpolation-filters="sRGB">
<feFlood flood-opacity="0" result="BackgroundImageFix"/>
<feBlend mode="normal" in="SourceGraphic" in2="BackgroundImageFix" result="shape"/>
<feColorMatrix in="SourceAlpha" type="matrix" values="0 0 0 0 0 0 0 0 0 0 0 0 0 0 0 0 0 0 127 0" result="hardAlpha"/>
<feOffset dy="1"/>
<feComposite in2="hardAlpha" operator="arithmetic" k2="-1" k3="1"/>
<feColorMatrix type="matrix" values="0 0 0 0 0 0 0 0 0 0 0 0 0 0 0 0 0 0 0.25 0"/>
<feBlend mode="normal" in2="shape" result="effect1_innerShadow_9835_147"/>
</filter>
</defs>
</svg>
