<?xml version="1.0" encoding="utf-8"?>
<!-- Generator: Adobe Illustrator 21.1.0, SVG Export Plug-In . SVG Version: 6.00 Build 0)  -->
<svg version="1.1" id="Layer_1" xmlns="http://www.w3.org/2000/svg" xmlns:xlink="http://www.w3.org/1999/xlink" x="0px" y="0px"
	 width="56px" height="56px" viewBox="0 0 56 56" enable-background="new 0 0 56 56" xml:space="preserve">
<path fill="#553C7B" d="M31,30H21v10h10c1.7,0,3.1-0.3,4.1-1.2c1-0.9,1.4-2.2,1.4-3.8c0-1.6-0.5-2.9-1.4-3.7
	C34.1,30.4,32.7,30,31,30z M33.7,24.7c0.9-0.8,1.4-1.9,1.4-3.4c0-1.6-0.4-2.8-1.2-3.5C33,17.2,31.6,17,30,17h-9v9h9.3
	C31.6,25.8,32.8,25.5,33.7,24.7z M51.8,0H4.2C1.9,0,0,1.9,0,4.2v47.6C0,54.1,1.9,56,4.2,56h47.6c2.3,0,4.2-1.9,4.2-4.2V4.2
	C56,1.9,54.1,0,51.8,0z M41.6,39.3c-0.5,1.1-1.2,2.1-2.2,2.9c-1,0.8-2.2,1.4-3.8,1.9C34.1,44.6,33.1,45,31,45H15V12h16
	c2.9,0,5.4,0.8,7.1,2.2c1.8,1.3,2.7,3.4,2.7,6.1c0,1.6-0.4,3.1-1.2,4.2c-0.8,1.2-2,2.1-3.5,2.7v0.1c2,0.4,3.5,1.4,4.6,2.9
	c1,1.5,1.6,3.3,1.6,5.6C42.3,37,42,38.2,41.6,39.3z"/>
</svg>
