<svg id="Layer_1" data-name="Layer 1" xmlns="http://www.w3.org/2000/svg" width="72" height="64" viewBox="0 0 72 64"><title>React Scheduler</title><path d="M65.05,11.26q-.62-.21-1.25-.39.1-.42.19-.85c.95-4.56.33-8.23-1.79-9.44s-5.35,0-8.71,2.94q-.5.43-1,.88l-.65-.59C48.37.72,44.84-.59,42.73.63S40.1,5.24,41,9.56q.13.64.29,1.28c-.5.14-1,.29-1.44.45-4.12,1.42-6.75,3.65-6.75,6s2.83,4.79,7.12,6.24l1.05.33q-.17.68-.31,1.38c-.81,4.25-.18,7.62,1.84,8.77s5.6,0,9-3q.41-.35.81-.74.51.49,1.05,1c3.31,2.82,6.58,4,8.6,2.8s2.77-4.82,1.89-9.23q-.1-.5-.23-1l.72-.22C69.07,22,72,19.68,72,17.26S69.25,12.69,65.05,11.26ZM54.59,4.76C57.46,2.28,60.15,1.3,61.37,2s1.81,3.75,1,7.68q-.08.38-.17.77A40.15,40.15,0,0,0,57,9.64a38.78,38.78,0,0,0-3.29-4.07Q54.13,5.15,54.59,4.76Zm-10,14.47q.53,1,1.1,2t1.22,2a35.79,35.79,0,0,1-3.59-.57C43.62,21.54,44,20.39,44.54,19.23Zm0-3.87c-.48-1.14-.9-2.26-1.24-3.34,1.11-.25,2.3-.45,3.53-.6q-.62,1-1.19,1.94T44.54,15.36Zm.88,1.94q.77-1.58,1.66-3.11h0q.89-1.52,1.89-3c1.16-.09,2.34-.13,3.54-.13s2.39,0,3.55.13q1,1.45,1.88,3t1.68,3.09q-.78,1.59-1.67,3.12h0q-.88,1.52-1.87,3c-1.15.08-2.35.12-3.57.12s-2.39,0-3.52-.11q-1-1.46-1.9-3T45.42,17.3Zm14,3.92q.59-1,1.13-2a34.74,34.74,0,0,1,1.31,3.39,35.69,35.69,0,0,1-3.63.61Q58.8,22.21,59.38,21.22Zm1.11-5.86q-.54-1-1.12-2t-1.18-1.93c1.24.16,2.43.36,3.55.61A34.85,34.85,0,0,1,60.49,15.36Zm-8-8.61a35.31,35.31,0,0,1,2.29,2.74q-2.3-.11-4.6,0C51,8.5,51.75,7.58,52.53,6.75Zm-9-4.7c1.3-.75,4.18.32,7.22,3l.58.53A39.49,39.49,0,0,0,48,9.64a41,41,0,0,0-5.19.8q-.15-.59-.27-1.19C41.85,5.55,42.34,2.75,43.56,2.05Zm-1.9,20.18-1-.3a14.14,14.14,0,0,1-4.54-2.39,3.4,3.4,0,0,1-1.45-2.29c0-1.4,2.11-3.19,5.64-4.41q.66-.23,1.34-.42a39.24,39.24,0,0,0,1.9,4.87A39.89,39.89,0,0,0,41.66,22.23Zm9,7.51a14.11,14.11,0,0,1-4.36,2.7,3.47,3.47,0,0,1-2.73.1c-1.23-.7-1.74-3.41-1-7q.12-.64.28-1.28a39.45,39.45,0,0,0,5.25.75,40.15,40.15,0,0,0,3.34,4.09Q51.05,29.41,50.67,29.74Zm1.9-1.86C51.78,27,51,26.11,50.23,25.1q1.12,0,2.28,0t2.35-.05A35,35,0,0,1,52.57,27.88Zm10.1,2.29a3.4,3.4,0,0,1-1.27,2.39c-1.23.7-3.85-.21-6.68-2.62q-.49-.41-1-.88A38.78,38.78,0,0,0,57,25a39.19,39.19,0,0,0,5.27-.8q.12.48.21.93A13.82,13.82,0,0,1,62.67,30.17Zm1.41-8.23h0l-.65.2a38.44,38.44,0,0,0-2-4.88,38.37,38.37,0,0,0,1.89-4.81c.4.11.78.23,1.16.36,3.6,1.23,5.8,3,5.8,4.44S67.94,20.68,64.08,21.95Z" style="fill:#fff"/><ellipse cx="52.51" cy="17.26" rx="3.48" ry="3.44" style="fill:#fff"/><path d="M12,17h1c.74-.11,2-1.26,2-2V7a2.75,2.75,0,0,0-2-2H12a2.75,2.75,0,0,0-2,2v8C10,15.74,11.27,16.89,12,17Z" style="fill:#fff;fill-rule:evenodd"/><path d="M56,37.1v21a3,3,0,0,1-3,3H5.9A3,3,0,0,1,3,58.1V25a3.09,3.09,0,0,1,3-3H30.74a7.2,7.2,0,0,1-2.36-5c0-2.18,1.23-4.21,3.37-6H16v6c0,.74-.26,1-1,1H10c-.74,0-1-.26-1-1V11H3a2.92,2.92,0,0,0-3,2.85V61a3,3,0,0,0,3,3H56a3,3,0,0,0,3-3V38.1A13.11,13.11,0,0,1,56,37.1Z" style="fill:#fff;fill-rule:evenodd"/><path d="M42.72,38.78a6.2,6.2,0,0,1-3-.8c-2.4-1.39-3.61-4.4-3.66-8.28a13.47,13.47,0,1,0,6.68,9.08ZM37,42a1,1,0,0,1-1,1H29a1,1,0,0,1-1-1V33a1,1,0,0,1,1-1h1a1,1,0,0,1,1,1v7h5a1,1,0,0,1,1,1Z" style="fill:#fff;fill-rule:evenodd"/></svg>