<?xml version="1.0" encoding="utf-8"?>
<!-- Generator: Adobe Illustrator 21.1.0, SVG Export Plug-In . SVG Version: 6.00 Build 0)  -->
<svg version="1.1" id="Layer_1" xmlns="http://www.w3.org/2000/svg" xmlns:xlink="http://www.w3.org/1999/xlink" x="0px" y="0px"
	 width="160px" height="140px" viewBox="0 0 160 140" enable-background="new 0 0 160 140" xml:space="preserve">
<path opacity="0.7" fill="#4BC0E0" d="M54.5,0C24.4,0,0,24.4,0,54.5c0,13.4,4.9,26.3,13.8,36.2c0.1,0.1,0.1,0.1,0.2,0.2
	c0.9,1,0.8,1.5,0.8,1.7c-0.4,2.2-4.9,5.5-7.9,6.9c-2.1,1-3.2,3.3-2.7,5.6c0.5,2.3,2.5,3.9,4.9,3.9h44.8c0.1,0,0.2,0,0.3,0
	c0.2,0,0.3,0,0.5,0c30.1,0,54.5-24.4,54.5-54.5C109,24.4,84.6,0,54.5,0z M54.5,99h-0.2c-0.1,0-0.3,0-0.4,0h-0.1c-0.1,0-0.3,0-0.4,0
	H22.7c0.9-1.4,1.5-2.9,1.8-4.5c0.5-2.5,0.4-6.3-3-10.2c-0.1-0.1-0.1-0.1-0.2-0.2C14,76,10,65.5,10,54.5C10,30,30,10,54.5,10
	S99,30,99,54.5S79,99,54.5,99z"/>
<g opacity="0.5">
	<path fill="#458798" d="M117.7,85.4c0-5.3-3.3-9.7-8-11.4c-2.7,7.6-6.9,14.5-12.4,20.3c2.2,2,5,3.2,8.2,3.2
		C112.2,97.6,117.7,92.1,117.7,85.4z"/>
	<path fill="#458798" d="M153.2,130.5c-2.9-1.4-7.4-4.7-7.9-6.9c0-0.2-0.1-0.7,0.8-1.7c0-0.1,0.1-0.1,0.1-0.2
		c8.9-10,13.8-22.8,13.8-36.2c0-29.2-23.1-53.1-51.9-54.4c3.2,7.2,4.9,15.1,4.9,23.4c0,2.6-0.2,5.2-0.5,7.7c2.5,0.7,4.8,1.8,6.9,3.3
		l5.5-3.5c1.2-0.7,2.7-0.5,3.6,0.5l2.6,2.9c0.9,1,1,2.6,0.1,3.7l-4.1,5.1c0.9,1.7,1.6,3.5,2,5.4l6.4,1.1c1.4,0.2,2.4,1.4,2.4,2.8
		v3.8c0,1.4-1,2.6-2.4,2.8l-6.4,1.1c-0.6,2.4-1.6,4.7-2.8,6.8l3.9,5.4c0.8,1.1,0.7,2.7-0.3,3.7l-2.7,2.7c-1,1-2.5,1.1-3.7,0.3
		l-5.4-3.9c-2.1,1.2-4.3,2.2-6.7,2.8l-1.1,6.5c-0.2,1.4-1.4,2.4-2.8,2.4h-3.8c-1.4,0-2.6-1-2.8-2.4l-1.1-6.5
		c-2.9-0.7-5.5-1.9-7.9-3.5l-5.6,3.5c-1.2,0.7-2.7,0.5-3.6-0.5l-1.6-1.8c-6.9,3.5-14.5,5.7-22.6,6.2c9.5,16.2,27,27.1,47.1,27.1
		c0.2,0,0.3,0,0.5,0c0.1,0,0.2,0,0.3,0H151c2.3,0,4.3-1.6,4.9-3.9C156.4,133.9,155.3,131.5,153.2,130.5z"/>
	<path fill="#458798" d="M64.6,32.3c-1.5-1.1-3.2-1.9-5.2-2.4s-4.1-0.8-6.5-0.8s-4.7,0.3-7,0.9s-4.4,1.4-6.3,2.6v11.2
		c1.9-1.6,3.8-2.9,5.9-3.7c2.1-0.8,4.1-1.2,6-1.2c0.9,0,1.7,0.1,2.4,0.4c0.7,0.3,1.4,0.6,1.9,1.1s0.9,1,1.2,1.7s0.4,1.4,0.4,2.1
		c0,0.9-0.1,1.7-0.4,2.4c-0.2,0.7-0.6,1.4-1.1,2.1c-0.5,0.7-1.1,1.4-1.8,2.1c-0.7,0.7-1.5,1.4-2.5,2.2c-0.9,0.7-1.7,1.5-2.3,2.3
		c-0.7,0.8-1.2,1.6-1.7,2.4c-0.4,0.8-0.8,1.7-1,2.7c-0.2,0.9-0.3,2-0.3,3.1c0,0.7,0.1,1.5,0.2,2.3c0.1,0.8,0.3,1.5,0.6,2.2H57
		c-0.3-0.4-0.5-0.9-0.7-1.6c-0.2-0.6-0.2-1.2-0.2-1.8c0-0.9,0.1-1.6,0.3-2.3s0.6-1.3,1-1.9c0.4-0.6,1-1.2,1.6-1.8
		c0.7-0.6,1.4-1.3,2.3-2c1.3-1.1,2.4-2.1,3.4-3.1s1.8-2.1,2.5-3.2c0.7-1.1,1.2-2.3,1.5-3.5s0.5-2.6,0.5-4.1c0-2.4-0.4-4.4-1.2-6.1
		C67.2,34.8,66.1,33.4,64.6,32.3z"/>
	<path fill="#458798" d="M57.5,73.8c-1.3-1.2-2.9-1.8-4.9-1.8s-3.6,0.6-5,1.8c-1.3,1.2-2,2.6-2,4.4c0,1.7,0.7,3.2,2,4.4
		c1.3,1.2,3,1.8,5,1.8s3.6-0.6,4.9-1.8c1.3-1.2,1.9-2.6,1.9-4.4S58.8,74.9,57.5,73.8z"/>
</g>
</svg>
