<?xml version="1.0" encoding="utf-8"?>
<!-- Generator: Adobe Illustrator 16.0.3, SVG Export Plug-In . SVG Version: 6.00 Build 0)  -->
<!DOCTYPE svg PUBLIC "-//W3C//DTD SVG 1.1//EN" "http://www.w3.org/Graphics/SVG/1.1/DTD/svg11.dtd">
<svg version="1.1" id="Layer_1" xmlns="http://www.w3.org/2000/svg" xmlns:xlink="http://www.w3.org/1999/xlink" x="0px" y="0px"
	 width="40px" height="40px" viewBox="0 0 40 40" enable-background="new 0 0 40 40" xml:space="preserve">
<path fill="#F05B41" d="M38,0H2C0.9,0,0,0.9,0,2v36c0,1.1,0.9,2,2,2h36c1.1,0,2-0.9,2-2V2C40,0.9,39.1,0,38,0z M38,36
	c0,1.1-0.9,2-2,2H4c-1.1,0-2-0.9-2-2V4c0-1.1,0.9-2,2-2h32c1.1,0,2,0.9,2,2V36z"/>
<rect x="6" y="6" fill="#F05B41" width="9" height="7"/>
<rect x="25" y="6" fill="#F05B41" width="9" height="7"/>
<rect x="16" y="6" fill="#F05B41" width="8" height="7"/>
<rect x="6" y="27" fill="#F05B41" width="9" height="7"/>
<rect x="25" y="27" fill="#F05B41" width="9" height="7"/>
<rect x="16" y="27" fill="#F05B41" width="8" height="7"/>
<rect x="15" y="13" fill="#F05B41" width="1" height="14"/>
<rect x="24" y="13" fill="#F05B41" width="1" height="14"/>
<rect x="6" y="19" fill="#F05B41" width="28" height="2"/>
<rect x="6" y="15" fill="#F05B41" width="28" height="2"/>
<rect x="6" y="23" fill="#F05B41" width="28" height="2"/>
</svg>
