<?xml version="1.0" encoding="utf-8"?>
<!-- Generator: Adobe Illustrator 16.0.3, SVG Export Plug-In . SVG Version: 6.00 Build 0)  -->
<!DOCTYPE svg PUBLIC "-//W3C//DTD SVG 1.1//EN" "http://www.w3.org/Graphics/SVG/1.1/DTD/svg11.dtd">
<svg version="1.1" id="Layer_1" xmlns="http://www.w3.org/2000/svg" xmlns:xlink="http://www.w3.org/1999/xlink" x="0px" y="0px"
	 width="150px" height="40px" viewBox="0 0 150 40" enable-background="new 0 0 150 40" xml:space="preserve">
<g>
	<path fill="#F05B41" d="M38,0H2C0.9,0,0,0.9,0,2v36c0,1.1,0.9,2,2,2h36c1.1,0,2-0.9,2-2V2C40,0.9,39.1,0,38,0z M38,36
		c0,1.1-0.9,2-2,2H4c-1.1,0-2-0.9-2-2V4c0-1.1,0.9-2,2-2h32c1.1,0,2,0.9,2,2V36z"/>
	<rect x="6" y="27" fill="#F05B41" width="9" height="7"/>
	<rect x="25" y="27" fill="#F05B41" width="9" height="7"/>
	<rect x="16" y="27" fill="#F05B41" width="8" height="7"/>
	<path fill="#F05B41" d="M34,17v-2h-9v-2h-1v2h-8v-2h-1v2H6v2h9v2H6v2h9v2H6v2h9v2h1v-2h8v2h1v-2h9v-2h-9v-2h9v-2h-9v-2H34z M24,23
		h-8v-2h8V23z M24,19h-8v-2h8V19z"/>
	<rect x="6" y="6" fill="#F05B41" width="9" height="7"/>
	<rect x="25" y="6" fill="#F05B41" width="9" height="7"/>
	<rect x="16" y="6" fill="#F05B41" width="8" height="7"/>
</g>
<g>
	<path fill="#B1B1B1" d="M56.3,7.2c0,1.9-0.4,3.3-1.2,4.3c-0.8,1-1.9,1.5-3.3,1.5H49V1.6h3.1c1.3,0,2.4,0.5,3.1,1.5
		C55.9,4,56.3,5.4,56.3,7.2z M54.1,7.2c0-2.6-0.7-3.8-2.1-3.8h-0.9v7.7h0.7c0.8,0,1.3-0.3,1.7-1C53.9,9.5,54.1,8.5,54.1,7.2z"/>
	<path fill="#B1B1B1" d="M60.6,13.2c-1.1,0-1.9-0.4-2.6-1.2c-0.6-0.8-0.9-1.9-0.9-3.3c0-1.4,0.3-2.6,0.9-3.4
		c0.6-0.8,1.4-1.2,2.4-1.2c0.9,0,1.7,0.3,2.2,1c0.5,0.7,0.8,1.7,0.8,2.9v1.1h-4.2c0,0.8,0.2,1.4,0.5,1.7c0.3,0.4,0.7,0.6,1.3,0.6
		c0.7,0,1.4-0.2,2.1-0.6v1.7C62.4,13,61.6,13.2,60.6,13.2z M60.3,5.7c-0.3,0-0.5,0.2-0.7,0.5c-0.2,0.3-0.3,0.8-0.3,1.5h2.1
		c0-0.6-0.1-1.1-0.3-1.4C60.9,5.9,60.6,5.7,60.3,5.7z"/>
	<path fill="#B1B1B1" d="M65.8,13l-2.3-8.7h2.2l1.1,5c0,0.2,0.1,0.6,0.2,1c0.1,0.5,0.1,0.8,0.1,1h0c0-0.2,0-0.4,0.1-0.7
		c0-0.3,0.1-0.6,0.1-0.8c0-0.2,0.4-2.1,1.2-5.6h2.2L68.3,13H65.8z"/>
	<path fill="#B1B1B1" d="M76.4,13h-5.1V1.6h5.1v1.8h-3v2.7h2.8V8h-2.8v3.2h3V13z"/>
	<path fill="#B1B1B1" d="M79,8.6l-2.2-4.3H79L80.2,7l1.1-2.7h2.1l-2.2,4.3l2.3,4.4h-2.2l-1.2-2.8L78.9,13h-2.2L79,8.6z"/>
	<path fill="#B1B1B1" d="M87.1,11.4c0.3,0,0.6-0.1,0.9-0.2v1.6c-0.3,0.2-0.8,0.4-1.5,0.4c-0.8,0-1.3-0.2-1.7-0.7
		c-0.4-0.5-0.5-1.1-0.5-2V5.9h-0.8V5l1.1-0.8l0.5-1.8h1.3v1.9H88v1.6h-1.6v4.6C86.4,11.1,86.6,11.4,87.1,11.4z"/>
	<path fill="#B1B1B1" d="M92.6,4.1c0.3,0,0.5,0,0.8,0.1l-0.2,2c-0.1-0.1-0.3-0.1-0.6-0.1c-0.5,0-0.9,0.2-1.2,0.6s-0.4,1-0.4,1.7V13
		h-2.1V4.3h1.7l0.2,1.4h0.1c0.2-0.5,0.5-0.9,0.8-1.2S92.2,4.1,92.6,4.1z"/>
	<path fill="#B1B1B1" d="M97.1,13.2c-1.1,0-1.9-0.4-2.6-1.2s-0.9-1.9-0.9-3.3c0-1.4,0.3-2.6,0.9-3.4c0.6-0.8,1.4-1.2,2.4-1.2
		c0.9,0,1.7,0.3,2.2,1c0.5,0.7,0.8,1.7,0.8,2.9v1.1h-4.2c0,0.8,0.2,1.4,0.5,1.7c0.3,0.4,0.7,0.6,1.3,0.6c0.7,0,1.4-0.2,2.1-0.6v1.7
		C98.8,13,98,13.2,97.1,13.2z M96.7,5.7c-0.3,0-0.5,0.2-0.7,0.5c-0.2,0.3-0.3,0.8-0.3,1.5h2.1c0-0.6-0.1-1.1-0.3-1.4
		S97.1,5.7,96.7,5.7z"/>
	<path fill="#B1B1B1" d="M109.4,13V7.8c0-1.3-0.3-1.9-0.9-1.9c-0.5,0-0.8,0.2-1,0.7c-0.2,0.5-0.3,1.2-0.3,2.2V13h-2.1V7.8
		c0-1.3-0.3-1.9-1-1.9c-0.4,0-0.8,0.2-1,0.7s-0.3,1.2-0.3,2.2V13h-2.1V4.3h1.6l0.3,1.1h0.1c0.2-0.4,0.5-0.8,0.9-1
		c0.4-0.2,0.7-0.3,1.2-0.3c1.1,0,1.8,0.5,2.1,1.5h0.1c0.4-1,1.2-1.5,2.1-1.5c0.8,0,1.4,0.3,1.8,0.8c0.4,0.5,0.6,1.3,0.6,2.4V13
		H109.4z"/>
	<path fill="#B1B1B1" d="M116,13.2c-1.1,0-1.9-0.4-2.6-1.2s-0.9-1.9-0.9-3.3c0-1.4,0.3-2.6,0.9-3.4c0.6-0.8,1.4-1.2,2.4-1.2
		c0.9,0,1.7,0.3,2.2,1c0.5,0.7,0.8,1.7,0.8,2.9v1.1h-4.2c0,0.8,0.2,1.4,0.5,1.7c0.3,0.4,0.7,0.6,1.3,0.6c0.7,0,1.4-0.2,2.1-0.6v1.7
		C117.8,13,117,13.2,116,13.2z M115.7,5.7c-0.3,0-0.5,0.2-0.7,0.5c-0.2,0.3-0.3,0.8-0.3,1.5h2.1c0-0.6-0.1-1.1-0.3-1.4
		S116,5.7,115.7,5.7z"/>
</g>
<g>
	<path fill="#F05B41" d="M52.5,31.2V39h-3.7V19h4.9c2.1,0,3.6,0.5,4.6,1.5c1,1,1.5,2.5,1.5,4.5c0,2.5-0.9,4.3-2.6,5.3l3.8,8.8h-4
		l-3.2-7.8H52.5z M52.5,28h1c0.9,0,1.5-0.2,1.9-0.7s0.6-1.2,0.6-2.2c0-1-0.2-1.7-0.6-2.2c-0.4-0.4-1-0.6-1.9-0.6h-0.9V28z"/>
	<path fill="#F05B41" d="M67.5,39.3c-1.9,0-3.4-0.7-4.5-2c-1.1-1.4-1.6-3.3-1.6-5.7c0-2.5,0.5-4.5,1.5-5.9c1-1.4,2.4-2.1,4.2-2.1
		c1.7,0,3,0.6,3.9,1.8c1,1.2,1.4,2.9,1.4,5.1v1.9H65c0,1.4,0.3,2.4,0.8,3c0.5,0.7,1.3,1,2.2,1c1.2,0,2.4-0.4,3.6-1.1v3
		C70.5,38.9,69.1,39.3,67.5,39.3z M66.9,26.3c-0.5,0-0.9,0.3-1.3,0.8c-0.3,0.6-0.5,1.4-0.6,2.6h3.7c0-1.1-0.2-2-0.5-2.5
		C67.9,26.6,67.5,26.3,66.9,26.3z"/>
	<path fill="#F05B41" d="M81.5,39l-0.7-2.1h-0.1c-0.5,0.9-1.1,1.5-1.7,1.8s-1.3,0.5-2.2,0.5c-1.1,0-2-0.4-2.6-1.3s-1-2-1-3.5
		c0-1.6,0.4-2.8,1.3-3.6c0.9-0.8,2.2-1.2,3.9-1.3l2-0.1v-1.1c0-1.4-0.6-2.1-1.8-2.1c-0.9,0-2,0.4-3.1,1.1l-1.3-2.5
		c1.5-1,3.2-1.4,4.9-1.4c1.6,0,2.8,0.5,3.7,1.4c0.8,0.9,1.3,2.2,1.3,3.9V39H81.5z M78.3,36.4c0.7,0,1.2-0.3,1.6-0.9s0.6-1.4,0.6-2.4
		v-1.3l-1.1,0.1c-0.8,0-1.4,0.3-1.8,0.7c-0.4,0.4-0.6,1.1-0.6,1.9C77,35.8,77.4,36.4,78.3,36.4z"/>
	<path fill="#F05B41" d="M91.4,39.3c-1.8,0-3.2-0.7-4.1-2s-1.4-3.3-1.4-5.8c0-2.7,0.4-4.7,1.3-6s2.3-2,4.2-2c0.6,0,1.2,0.1,1.8,0.2
		s1.2,0.4,1.7,0.7l-1,2.8c-0.8-0.4-1.4-0.7-2-0.7c-0.8,0-1.3,0.4-1.7,1.2s-0.5,2-0.5,3.6c0,1.6,0.2,2.8,0.5,3.5s0.9,1.2,1.7,1.2
		c0.9,0,1.9-0.3,2.9-1v3.2C93.6,39,92.6,39.3,91.4,39.3z"/>
	<path fill="#F05B41" d="M101.4,36.2c0.5,0,1.1-0.1,1.7-0.4v2.8c-0.6,0.4-1.5,0.6-2.7,0.6c-1.3,0-2.3-0.4-2.9-1.2s-1-2-1-3.5v-7.9
		H95V25l1.9-1.3l0.9-3.2h2.3v3.3h2.8v2.9h-2.8v8C100.1,35.7,100.6,36.2,101.4,36.2z"/>
	<path fill="#F05B41" d="M115.7,27.9h6.1v10.3c-1.7,0.7-3.6,1.1-5.5,1.1c-2.3,0-4.1-0.9-5.4-2.7S109,32.3,109,29
		c0-3.2,0.7-5.7,2.2-7.5c1.4-1.8,3.4-2.7,6-2.7c1.6,0,3.1,0.4,4.6,1.2l-1.2,3c-1.1-0.7-2.2-1-3.2-1c-1.4,0-2.5,0.6-3.4,1.9
		c-0.8,1.3-1.2,3-1.2,5.2c0,2.2,0.3,4,0.9,5.2s1.5,1.8,2.6,1.8c0.6,0,1.2-0.1,1.8-0.2v-4.6h-2.5V27.9z"/>
	<path fill="#F05B41" d="M130.4,23.5c0.4,0,0.9,0.1,1.3,0.2l-0.4,3.5c-0.3-0.1-0.6-0.1-1-0.1c-0.9,0-1.6,0.3-2,1s-0.7,1.7-0.7,3V39
		h-3.6V23.8h3l0.4,2.4h0.1c0.4-1,0.8-1.6,1.3-2.1S129.8,23.5,130.4,23.5z"/>
	<path fill="#F05B41" d="M132.5,19.8c0-0.6,0.2-1.1,0.5-1.4c0.4-0.4,0.8-0.5,1.5-0.5c0.6,0,1.1,0.2,1.4,0.5c0.4,0.4,0.5,0.8,0.5,1.4
		c0,0.6-0.2,1.1-0.5,1.4s-0.8,0.5-1.4,0.5c-0.6,0-1.1-0.2-1.4-0.5S132.5,20.4,132.5,19.8z M136.3,39h-3.6V23.8h3.6V39z"/>
	<path fill="#F05B41" d="M142.7,39.3c-1.4,0-2.5-0.7-3.3-2.1s-1.2-3.3-1.2-5.8c0-2.5,0.4-4.4,1.2-5.8s1.9-2.1,3.3-2.1
		c0.7,0,1.3,0.2,1.8,0.5s1,0.9,1.4,1.7h0.2c-0.1-1.4-0.2-2.4-0.2-2.9v-5.1h3.6V39h-2.7l-0.6-2h-0.1
		C145.3,38.5,144.2,39.3,142.7,39.3z M143.9,36.2c0.7,0,1.2-0.3,1.5-0.9s0.5-1.7,0.5-3.4v-0.5c0-1.8-0.2-3-0.5-3.7s-0.8-1.1-1.6-1.1
		c-0.7,0-1.2,0.4-1.5,1.2s-0.5,2-0.5,3.6s0.2,2.8,0.5,3.5S143.2,36.2,143.9,36.2z"/>
</g>
</svg>
