<?xml version="1.0" encoding="utf-8"?>
<!-- Generator: Adobe Illustrator 16.0.3, SVG Export Plug-In . SVG Version: 6.00 Build 0)  -->
<!DOCTYPE svg PUBLIC "-//W3C//DTD SVG 1.1//EN" "http://www.w3.org/Graphics/SVG/1.1/DTD/svg11.dtd">
<svg version="1.1" id="Layer_1" xmlns="http://www.w3.org/2000/svg" xmlns:xlink="http://www.w3.org/1999/xlink" x="0px" y="0px"
	 width="196px" height="46px" viewBox="0 0 196 46" enable-background="new 0 0 196 46" xml:space="preserve">
<path fill="#F05B41" d="M38,0H2C0.9,0,0,0.9,0,2v36c0,1.1,0.9,2,2,2h36c1.1,0,2-0.9,2-2V2C40,0.9,39.1,0,38,0z M38,36
	c0,1.1-0.9,2-2,2H4c-1.1,0-2-0.9-2-2V4c0-1.1,0.9-2,2-2h32c1.1,0,2,0.9,2,2V36z M6,34h9v-7H6V34z M34,34v-7h-9v7H34z M16,34h8v-7h-8
	V34z M24,15h-8v-2h-1v2H6v2h9v2H6v2h9v2H6v2h9v2h1v-2h8v2h1v-2h9v-2h-9v-2h9v-2h-9v-2h9v-2h-9v-2h-1V15z M24,23h-8v-2h8V23z M24,19
	h-8v-2h8V19z M59.2,16.5c0-1.9-0.5-3.2-1.4-4.2c-0.9-0.9-2.3-1.4-4.2-1.4H49v18.6h3.5v-7.2h1.2l2.9,7.2h3.7l-3.6-8.1
	C58.4,20.5,59.2,18.9,59.2,16.5z M55.1,18.7c-0.4,0.5-0.9,0.7-1.8,0.7h-0.9V14h0.9c0.8,0,1.4,0.2,1.7,0.6c0.4,0.4,0.6,1.1,0.6,2
	C55.7,17.5,55.5,18.2,55.1,18.7z M66.3,15.2c-1.7,0-2.9,0.7-3.9,2c-0.9,1.3-1.4,3.1-1.4,5.5c0,2.3,0.5,4.1,1.5,5.3
	c1,1.3,2.4,1.9,4.2,1.9c1.5,0,2.8-0.3,3.9-1v-2.8c-1.2,0.7-2.3,1-3.4,1c-0.9,0-1.5-0.3-2-0.9c-0.5-0.6-0.7-1.6-0.8-2.8h6.8v-1.8
	c0-2-0.4-3.6-1.3-4.7C69.1,15.7,67.9,15.2,66.3,15.2z M64.6,20.9c0.1-1.1,0.2-1.9,0.5-2.4c0.3-0.5,0.7-0.8,1.2-0.8
	c0.5,0,0.9,0.3,1.2,0.8c0.3,0.5,0.5,1.3,0.5,2.3H64.6z M78.1,15.1c-1.7,0-3.2,0.4-4.6,1.3l1.2,2.3c1.1-0.7,2.1-1,2.9-1
	c1.1,0,1.7,0.7,1.7,2v1l-1.9,0.1c-1.6,0.1-2.8,0.5-3.7,1.2s-1.2,1.8-1.2,3.3c0,1.4,0.3,2.5,0.9,3.3c0.6,0.8,1.4,1.2,2.5,1.2
	c0.8,0,1.5-0.2,2-0.5s1-0.9,1.5-1.7h0.1l0.7,1.9h2.5v-9.5c0-1.6-0.4-2.8-1.2-3.6C80.7,15.6,79.6,15.1,78.1,15.1z M79.3,24.1
	c0,0.9-0.2,1.7-0.6,2.2c-0.4,0.6-0.9,0.8-1.5,0.8c-0.8,0-1.2-0.6-1.2-1.8c0-0.8,0.2-1.4,0.5-1.8c0.4-0.4,0.9-0.6,1.7-0.7l1-0.1V24.1
	z M90.2,18c0.5,0,1.2,0.2,1.9,0.6l1-2.6c-0.5-0.3-1-0.5-1.5-0.7c-0.6-0.2-1.1-0.2-1.7-0.2c-1.7,0-3,0.6-3.9,1.8
	c-0.8,1.2-1.3,3.1-1.3,5.6c0,2.4,0.4,4.2,1.3,5.4c0.9,1.2,2.2,1.8,3.8,1.8c1.1,0,2.1-0.3,2.9-0.8v-3c-0.9,0.6-1.8,0.9-2.7,0.9
	c-0.7,0-1.2-0.4-1.5-1.1c-0.3-0.7-0.5-1.8-0.5-3.3c0-1.5,0.2-2.6,0.5-3.4C88.9,18.4,89.4,18,90.2,18z M98.3,25.5v-7.4h2.6v-2.7h-2.6
	v-3h-2.2l-0.9,3l-1.8,1.2v1.5h1.4v7.3c0,1.5,0.3,2.6,0.9,3.3s1.5,1.1,2.7,1.1c1.1,0,1.9-0.2,2.5-0.6v-2.6c-0.6,0.2-1.1,0.4-1.5,0.4
	C98.7,27,98.3,26.5,98.3,25.5z M118.9,27.3c1.2-1.6,1.9-4,1.9-7c0-2.9-0.6-5.1-1.8-6.7c-1.2-1.6-2.9-2.4-5-2.4h-5v18.6h4.5
	C115.9,29.8,117.7,28.9,118.9,27.3z M112.5,14.2h1.4c2.3,0,3.4,2.1,3.4,6.2c0,2.1-0.3,3.7-0.9,4.8c-0.6,1.1-1.5,1.6-2.8,1.6h-1.1
	V14.2z M129.2,27.8L129.2,27.8l0.7,1.9h2.5v-9.5c0-1.6-0.4-2.8-1.2-3.6c-0.8-0.9-1.9-1.3-3.4-1.3c-1.7,0-3.2,0.4-4.6,1.3l1.2,2.3
	c1.1-0.7,2.1-1,2.9-1c1.1,0,1.7,0.7,1.7,2v1l-1.9,0.1c-1.6,0.1-2.8,0.5-3.7,1.2c-0.8,0.7-1.2,1.8-1.2,3.3c0,1.4,0.3,2.5,0.9,3.3
	c0.6,0.8,1.4,1.2,2.5,1.2c0.8,0,1.5-0.2,2-0.5S128.7,28.7,129.2,27.8z M125.8,25.6c0-0.8,0.2-1.4,0.5-1.8c0.4-0.4,0.9-0.6,1.7-0.7
	l1-0.1v1.2c0,0.9-0.2,1.7-0.6,2.2c-0.4,0.6-0.9,0.8-1.5,0.8C126.2,27.4,125.8,26.8,125.8,25.6z M138.7,25.7v-7.4h2.6v-2.7h-2.6v-3
	h-2.2l-0.9,3l-1.8,1.2v1.5h1.4v7.3c0,1.5,0.3,2.6,0.9,3.3s1.5,1.1,2.7,1.1c1.1,0,1.9-0.2,2.5-0.6v-2.6c-0.6,0.2-1.1,0.4-1.5,0.4
	C139.1,27.2,138.7,26.7,138.7,25.7z M149.4,27.8l0.7,1.9h2.5v-9.5c0-1.6-0.4-2.8-1.2-3.6c-0.8-0.9-1.9-1.3-3.4-1.3
	c-1.7,0-3.2,0.4-4.6,1.3l1.2,2.3c1.1-0.7,2.1-1,2.9-1c1.1,0,1.7,0.7,1.7,2v1l-1.9,0.1c-1.6,0.1-2.8,0.5-3.7,1.2s-1.2,1.8-1.2,3.3
	c0,1.4,0.3,2.5,0.9,3.3c0.6,0.8,1.4,1.2,2.5,1.2c0.8,0,1.5-0.2,2-0.5S148.8,28.7,149.4,27.8L149.4,27.8z M149.1,24.3
	c0,0.9-0.2,1.7-0.6,2.2c-0.4,0.6-0.9,0.8-1.5,0.8c-0.8,0-1.2-0.6-1.2-1.8c0-0.8,0.2-1.4,0.5-1.8c0.4-0.4,0.9-0.6,1.7-0.7l1-0.1V24.3
	z M161.3,30c1.8,0,3.5-0.3,5.1-1v-9.5h-5.7v3h2.3v4.3c-0.6,0.1-1.1,0.2-1.7,0.2c-1.1,0-1.9-0.6-2.4-1.7c-0.6-1.1-0.8-2.7-0.8-4.8
	c0-2,0.4-3.6,1.1-4.8c0.8-1.2,1.8-1.8,3.1-1.8c0.9,0,1.9,0.3,2.9,0.9l1.1-2.8c-1.3-0.8-2.8-1.1-4.2-1.1c-2.4,0-4.3,0.8-5.6,2.5
	c-1.3,1.7-2,4-2,7c0,3.1,0.6,5.5,1.7,7.1C157.5,29.2,159.2,30,161.3,30z M172.2,22.5c0-1.2,0.2-2.2,0.7-2.8c0.4-0.6,1.1-1,1.9-1
	c0.4,0,0.7,0,0.9,0.1l0.4-3.3c-0.4-0.1-0.8-0.2-1.2-0.2c-0.6,0-1.1,0.2-1.5,0.6c-0.4,0.4-0.8,1-1.2,1.9H172l-0.4-2.2h-2.8v14.1h3.4
	V22.5z M180.7,15.6h-3.4v14.1h3.4V15.6z M179.1,13.7c0.5,0,1-0.2,1.3-0.5c0.3-0.3,0.5-0.8,0.5-1.3c0-0.6-0.2-1-0.5-1.3
	c-0.3-0.3-0.8-0.5-1.3-0.5c-0.6,0-1,0.2-1.4,0.5c-0.3,0.3-0.5,0.8-0.5,1.3c0,0.6,0.2,1,0.5,1.3C178.1,13.6,178.5,13.7,179.1,13.7z
	 M190.2,27.9h0.1l0.6,1.8h2.5V10H190v4.7c0,0.5,0.1,1.4,0.2,2.7H190c-0.4-0.8-0.8-1.3-1.3-1.6c-0.5-0.3-1-0.5-1.7-0.5
	c-1.3,0-2.3,0.7-3,2s-1.1,3.1-1.1,5.4c0,2.3,0.4,4.1,1.1,5.4s1.8,1.9,3.1,1.9C188.5,30,189.5,29.3,190.2,27.9z M186.8,26.1
	c-0.3-0.7-0.4-1.8-0.4-3.3c0-1.5,0.1-2.6,0.4-3.3c0.3-0.8,0.7-1.1,1.4-1.1c0.7,0,1.1,0.3,1.4,1c0.3,0.7,0.4,1.8,0.4,3.5v0.4
	c0,1.5-0.2,2.5-0.5,3.1c-0.3,0.6-0.7,0.9-1.4,0.9C187.5,27.2,187.1,26.8,186.8,26.1z M15,13H6V6h9V13z M34,13h-9V6h9V13z M24,13h-8
	V6h8V13z"/>
<path fill="#B1B1B1" d="M114.8,35.8c-0.4-0.7-1-1-1.7-1c-0.3,0-0.6,0.2-0.9,0.3c-0.3,0.2-0.5,0-0.7,1h-0.1c0.1-1,0.3-1.2,0.3-1.3
	c0-0.1,0.2-0.3,0.2-0.4V32h-2v11h1l0.3-1h0.1c0.2,0,0.5,0.5,0.8,0.6c0.3,0.2,0.6,0.2,0.9,0.2c0.7,0,1.3-0.4,1.7-1.1
	c0.4-0.7,0.6-1.7,0.6-3C115.4,37.5,115.2,36.5,114.8,35.8z M112.5,41.1c-0.4,0-0.4-0.2-0.5-0.5c-0.2-0.4,0-1,0-1.9v-0.2
	c0-0.8-0.1-1.4,0-1.7c0.2-0.3,0.3-0.5,0.6-0.5c0.7,0,1,0.8,1,2.4C113.6,40.3,113.2,41.1,112.5,41.1z"/>
<path fill="#B1B1B1" d="M119.5,39.6c0,0.2-0.1,0.4-0.1,0.7c0,0.3-0.1,0.5-0.1,0.6h0c-0.1-0.7-0.2-1.2-0.3-1.6l-1.1-4.4h-1.9l2.3,7.9
	l-0.1,0.5c-0.2,0.8-0.6,1.2-1.2,1.2c-0.2,0-0.4,0-0.6-0.1v1.5c0.3,0.1,0.6,0.1,1,0.1c0.7,0,1.3-0.2,1.8-0.7c0.4-0.4,0.8-1.2,1.1-2.2
	l2.2-8.3h-1.9C119.9,37.8,119.5,39.4,119.5,39.6z"/>
<path fill="#B1B1B1" d="M132.6,33.5c-0.7-0.9-1.6-1.5-2.8-1.5H127v11h2.6c1.3,0,2.3-0.7,2.9-1.5c0.7-0.9,1-2.4,1-4.1
	C133.6,35.8,133.2,34.4,132.6,33.5z M131.1,40.1c-0.3,0.6-0.8,0.9-1.5,0.9H129v-7h0.8c1.2,0,1.9,1.2,1.9,3.5
	C131.6,38.6,131.5,39.5,131.1,40.1z"/>
<path fill="#B1B1B1" d="M140,38.2c0-1.1,0-2-0.5-2.6c-0.5-0.6-1.1-0.9-1.9-0.9c-0.9,0-1.6,0.4-2.1,1.1c-0.5,0.7-0.7,1.7-0.7,3
	c0,1.3,0.3,2.2,0.8,2.9s1.3,1,2.3,1c0.8,0,1.1-0.2,2.1-0.5v-1.5c-1,0.4-1.2,0.6-1.8,0.6c-0.5,0-0.8-0.3-1.1-0.6
	c-0.3-0.3-0.4-0.6-0.4-1.6h3.3V38.2z M136.7,37.9c0-0.6,0.1-1,0.3-1.3c0.2-0.3,0.4-0.4,0.7-0.4c0.3,0,0.5,0.1,0.7,0.4
	c0.2,0.3,0.2,0.7,0.3,1.3H136.7z"/>
<path fill="#B1B1B1" d="M144.3,39.8c0,0.2-0.1,0.5-0.1,0.7c0,0.3-0.1,0.5-0.1,0.6h0c0-0.2-0.1-0.5-0.1-0.9s-0.1-0.7-0.1-0.9l-1-4.5
	H141l2,7.7h2.3l2-7.7h-1.9C144.7,37.9,144.4,39.6,144.3,39.8z"/>
<polygon fill="#B1B1B1" points="148.3,42.6 152.9,42.6 152.9,40.9 150.2,40.9 150.2,38.1 152.7,38.1 152.7,36.5 150.2,36.5 
	150.2,34.1 152.9,34.1 152.9,32.4 148.3,32.4 "/>
<polygon fill="#B1B1B1" points="159.6,34.9 157.7,34.9 156.8,37.2 155.7,34.9 153.8,34.9 155.8,38.6 153.7,42.6 155.7,42.6 
	156.7,40.1 157.8,42.6 159.7,42.6 157.7,38.6 "/>
<path fill="#B1B1B1" d="M162.8,40.4v-4.1h1.4v-1.5h-1.4v-1.7h-1.2l-0.5,1.6l-1,0.7v0.8h0.8v4c0,0.8,0.2,1.4,0.5,1.8
	c0.3,0.4,0.8,0.6,1.5,0.6c0.6,0,1.1-0.1,1.4-0.3V41c-0.3,0.1-0.6,0.2-0.8,0.2C163,41.2,162.8,40.9,162.8,40.4z"/>
<path fill="#B1B1B1" d="M167.9,35c-0.2,0.2-0.5,0.6-0.7,1h-0.1l-0.2-1.2h-1.5v7.7h1.8v-4c0-0.7,0.1-1.2,0.4-1.5s0.6-0.5,1-0.5
	c0.2,0,0.4,0,0.5,0.1l0.2-1.8c-0.2-0.1-0.4-0.1-0.7-0.1C168.5,34.7,168.2,34.8,167.9,35z"/>
<path fill="#B1B1B1" d="M176,38.2c0-1.1-0.4-2-0.9-2.6c-0.5-0.6-1.2-0.9-2.1-0.9c-0.9,0-1.6,0.4-2.1,1.1c-0.5,0.7-0.8,1.7-0.8,3
	c0,1.3,0.3,2.2,0.8,2.9c0.6,0.7,1.1,1,2.1,1c0.8,0,1.9-0.2,1.9-0.5v-1.5c0,0.4-1,0.6-1.6,0.6c-0.5,0-0.7-0.3-1-0.6
	c-0.3-0.3-0.3-0.6-0.3-1.6h4V38.2z M172.1,37.9c0-0.6,0.1-1,0.3-1.3c0.2-0.3,0.4-0.4,0.7-0.4c0.3,0,0.5,0.1,0.7,0.4s0.2,0.7,0.3,1.3
	H172.1z"/>
<path fill="#B1B1B1" d="M184.5,34.7c-0.9,0-1.5,0.4-1.9,1.3h-0.1c-0.3-0.9-0.9-1.3-1.9-1.3c-0.4,0-0.7,0.1-1,0.3
	c-0.3,0.2-0.6,0.5-0.8,0.9h-0.1l-0.2-1h-1.5v7.7h1.8v-3.7c0-0.9,0.1-1.6,0.3-2c0.2-0.4,0.5-0.6,0.9-0.6c0.6,0,0.9,0.6,0.9,1.7v4.6
	h1.9v-3.8c0-0.9,0.1-1.5,0.3-1.9c0.2-0.4,0.5-0.6,0.9-0.6c0.6,0,0.8,0.6,0.8,1.7v4.6h1.9v-5c0-0.9-0.2-1.6-0.5-2.1
	C185.8,34.9,185.2,34.7,184.5,34.7z"/>
<path fill="#B1B1B1" d="M194,38.2c0-1.1-0.4-2-0.9-2.6c-0.5-0.6-1.3-0.9-2.1-0.9c-0.9,0-1.7,0.4-2.2,1.1c-0.5,0.7-0.8,1.7-0.8,3
	c0,1.3,0.3,2.2,0.8,2.9c0.6,0.7,1.2,1,2.2,1c0.8,0,2-0.2,2-0.5v-1.5c0,0.4-1.1,0.6-1.7,0.6c-0.5,0-0.8-0.3-1-0.6
	c-0.3-0.3-0.3-0.6-0.4-1.6h4.1V38.2z M189.9,37.9c0-0.6,0.1-1,0.3-1.3c0.2-0.3,0.4-0.4,0.7-0.4c0.3,0,0.5,0.1,0.7,0.4
	s0.2,0.7,0.3,1.3H189.9z"/>
</svg>
