<?xml version="1.0" encoding="utf-8"?>
<!-- Generator: Adobe Illustrator 21.1.0, SVG Export Plug-In . SVG Version: 6.00 Build 0)  -->
<svg version="1.1" id="Layer_1" xmlns="http://www.w3.org/2000/svg" xmlns:xlink="http://www.w3.org/1999/xlink" x="0px" y="0px"
	 width="40px" height="40px" viewBox="0 0 40 40" style="enable-background:new 0 0 40 40;" xml:space="preserve">
<style type="text/css">
	.st0{fill:#F05B41;}
</style>
<path class="st0" d="M8,8h1c0.5,0,1-0.5,1-1V1c0-0.5-0.5-1-1-1H8C7.5,0,7,0.5,7,1v6C7,7.5,7.5,8,8,8z"/>
<path class="st0" d="M32,8h1c0.5,0,1-0.5,1-1V1c0-0.5-0.5-1-1-1h-1c-0.5,0-1,0.5-1,1v6C31,7.5,31.5,8,32,8z"/>
<path class="st0" d="M38,4h-3v4c0,0.5-0.5,1-1,1h-3c-0.5,0-1-0.5-1-1V4H11v4c0,0.5-0.5,1-1,1H7C6.5,9,6,8.5,6,8V4H2C0.9,4,0,4.9,0,6
	v32c0,1.1,0.9,2,2,2h36c1.1,0,2-0.9,2-2V6C40,4.9,39.1,4,38,4z M38,36c0,1.1-0.9,2-2,2H4c-1.1,0-2-0.9-2-2V16c0-1.1,0.9-4,2-4h32
	c1.1,0,2,2.9,2,4V36z"/>
<path class="st0" d="M20,16c-5,0-9,4-9,9c0,5,4,9,9,9s9-4,9-9C29,20,25,16,20,16z M24,26h-4c-0.5,0-1-0.5-1-1v-6c0-0.5,0.5-1,1-1
	s1,0.5,1,1v5h3c0.5,0,1,0.5,1,1C25,25.5,24.5,26,24,26z"/>
</svg>
