<svg id="Layer_1" data-name="Layer 1" xmlns="http://www.w3.org/2000/svg" width="220" height="100" viewBox="0 0 220 100"><title>Scatter</title><circle cx="13" cy="88" r="2" fill="#59d0f0"/><circle cx="25" cy="63" r="2" fill="#59d0f0"/><circle cx="36" cy="57" r="2" fill="#59d0f0"/><circle cx="47" cy="81" r="2" fill="#59d0f0"/><circle cx="40" cy="71" r="2" fill="#59d0f0"/><circle cx="82" cy="48" r="2" fill="#59d0f0"/><circle cx="101" cy="44" r="2" fill="#59d0f0"/><circle cx="84" cy="64" r="2" fill="#59d0f0"/><circle cx="94" cy="48" r="2" fill="#59d0f0"/><circle cx="68" cy="63" r="2" fill="#59d0f0"/><circle cx="107" cy="48" r="2" fill="#59d0f0"/><circle cx="139" cy="63" r="2" fill="#59d0f0"/><circle cx="74" cy="62" r="2" fill="#59d0f0"/><circle cx="78" cy="57" r="2" fill="#59d0f0"/><circle cx="70" cy="83" r="2" fill="#59d0f0"/><circle cx="59" cy="52" r="2" fill="#59d0f0"/><circle cx="72" cy="44" r="2" fill="#59d0f0"/><circle cx="56" cy="63" r="2" fill="#59d0f0"/><circle cx="63" cy="57" r="2" fill="#59d0f0"/><circle cx="54" cy="39" r="2" fill="#59d0f0"/><circle cx="205" cy="29" r="2" fill="#c685ff"/><circle cx="194" cy="35" r="2" fill="#c685ff"/><circle cx="183" cy="11" r="2" fill="#c685ff"/><circle cx="190" cy="21" r="2" fill="#c685ff"/><circle cx="148" cy="44" r="2" fill="#c685ff"/><circle cx="146" cy="28" r="2" fill="#c685ff"/><circle cx="123" cy="44" r="2" fill="#c685ff"/><circle cx="156" cy="30" r="2" fill="#c685ff"/><circle cx="163" cy="22" r="2" fill="#c685ff"/><circle cx="167" cy="19" r="2" fill="#c685ff"/><circle cx="126" cy="75" r="2" fill="#c685ff"/><circle cx="105" cy="59" r="2" fill="#c685ff"/><circle cx="160" cy="9" r="2" fill="#c685ff"/><circle cx="171" cy="40" r="2" fill="#c685ff"/><circle cx="94" cy="37" r="2" fill="#c685ff"/><circle cx="174" cy="29" r="2" fill="#c685ff"/><circle cx="163" cy="30" r="2" fill="#c685ff"/><circle cx="167" cy="35" r="2" fill="#c685ff"/><circle cx="128" cy="57" r="2" fill="#c685ff"/><circle cx="135" cy="37" r="2" fill="#c685ff"/><circle cx="114" cy="35" r="2" fill="#c685ff"/><circle cx="119" cy="25" r="2" fill="#c685ff"/><circle cx="150" cy="17" r="2" fill="#c685ff"/><circle cx="142" cy="16" r="2" fill="#c685ff"/><circle cx="135" cy="22" r="2" fill="#c685ff"/><circle cx="176" cy="53" r="2" fill="#c685ff"/><circle cx="169" cy="70" r="2" fill="#c685ff"/><circle cx="76" cy="28" r="2" fill="#59d0f0"/><circle cx="30" cy="17" r="2" fill="#59d0f0"/></svg>