<svg id="Layer_1" data-name="Layer 1" xmlns="http://www.w3.org/2000/svg" width="220" height="100" viewBox="0 0 220 100"><title>Spline</title><rect y="90" width="10" height="10" fill="#e6e6e6"/><path d="M10,70s26.33-2.71,34-6.75C54.52,57.71,66.2,19.94,78,18.5c9.79-1.19,24.28,38.35,34,40,8.54,1.45,25.41-16.38,34-15.25,9.39,1.24,24.6,22.1,34,23.25,7.62.94,30-13,30-13" fill="none" stroke="#59d0f0" stroke-miterlimit="10" stroke-width="3"/><path d="M10,76s25.44,8.42,34,7c9.73-1.61,19.5-15.5,35.5-16.5,15-.94,23.58,17.57,32.5,17,9.38-.6,20.32-39.88,34-49,10.5-7,16.5,13,31.5,1,10.51-8.41,30-19,32.5-17.5" fill="none" stroke="#c685ff" stroke-miterlimit="10" stroke-width="3"/></svg>