<svg id="Layer_1" data-name="Layer 1" xmlns="http://www.w3.org/2000/svg" width="220" height="100" viewBox="0 0 220 100"><title>Stacked Spline</title><path d="M10,70s26.33-2.71,34-6.75C54.52,57.71,66.2,51.94,78,50.5c9.79-1.19,24.28,6.35,34,8,8.54,1.45,27.67-9.33,34-15.25,13.94-13,26.52-.25,34,2.25,10.36,3.46,30-24,30-24" fill="none" stroke="#ace782" stroke-miterlimit="10" stroke-width="3"/><path d="M10,79.5s25.44-1.58,34-3c9.73-1.61,19.5-16,35.5-17,15-.94,26,15,32.5,20,7.45,5.73,20.32.12,34-9,10.5-7,16.5,16,31.5,4,10.51-8.41,28-24,32.5-31" fill="none" stroke="#59d0f0" stroke-miterlimit="10" stroke-width="3"/></svg>