<?xml version="1.0" encoding="utf-8"?>
<!-- Generator: Adobe Illustrator 22.1.0, SVG Export Plug-In . SVG Version: 6.00 Build 0)  -->
<!DOCTYPE svg PUBLIC "-//W3C//DTD SVG 1.1//EN" "http://www.w3.org/Graphics/SVG/1.1/DTD/svg11.dtd">
<svg version="1.1" id="Layer_1" xmlns="http://www.w3.org/2000/svg" xmlns:xlink="http://www.w3.org/1999/xlink" x="0px" y="0px"
	 viewBox="0 0 18 18" style="enable-background:new 0 0 18 18;" xml:space="preserve">
<style type="text/css">
	.st0{opacity:0.25;}
</style>
<g class="st0">
	<path d="M16,18H2c-1.1,0-2-0.9-2-2V2c0-1.1,0.9-2,2-2h14c1.1,0,2,0.9,2,2v14C18,17.1,17.1,18,16,18z"/>
</g>
<path d="M18,8c-0.4,0.4-1.3,1.1-2.4,1.5c-2.1,0.8-4.1,0.2-5.9-1.8C6.2,3.9,2.4,4.8,0,6.3V9c0.4-0.4,1.3-1.1,2.4-1.5
	c2.1-0.8,4.1-0.2,5.9,1.8c1.9,2,3.8,2.7,5.5,2.7c1.6,0,3-0.6,4.2-1.3V8z"/>
</svg>
